<?xml version="1.0" encoding="UTF-8"?>
<!DOCTYPE svg PUBLIC "-//W3C//DTD SVG 1.1//EN" "http://www.w3.org/Graphics/SVG/1.1/DTD/svg11.dtd">
<svg xmlns="http://www.w3.org/2000/svg" version="1.1" width="1181px" height="1417px"
     style="shape-rendering:geometricPrecision; text-rendering:geometricPrecision; image-rendering:optimizeQuality; fill-rule:evenodd; clip-rule:evenodd"
>
    <g>
        <path style="opacity:0.997" fill="#000000"
              d="M 999.5,603.5 C 941.294,619.742 882.294,632.408 822.5,641.5C 808.994,643.238 795.66,645.238 782.5,647.5C 579.146,673.27 378.813,658.604 181.5,603.5C 176.601,516.757 186.434,431.757 211,348.5C 231.008,282.12 263.675,223.12 309,171.5C 385.539,92.013 479.372,53.3464 590.5,55.5C 739.181,55.0586 851.014,118.392 926,245.5C 960.929,309.289 983.263,377.289 993,449.5C 999.88,500.63 1002.05,551.963 999.5,603.5 Z"/>
    </g>
    <g>
        <path style="opacity:1" fill="#fdfdfd"
              d="M 474.5,218.5 C 496.287,217.643 514.121,225.643 528,242.5C 552.171,275.808 560.171,312.808 552,353.5C 547.524,379.65 535.024,400.817 514.5,417C 495.357,429.096 476.024,429.429 456.5,418C 438.279,405.082 425.779,387.915 419,366.5C 407.276,330.011 409.276,294.344 425,259.5C 433.5,243 446,230.5 462.5,222C 466.543,220.509 470.543,219.342 474.5,218.5 Z"/>
    </g>
    <g>
        <path style="opacity:1" fill="#fdfdfd"
              d="M 626.5,317.5 C 627.737,312.04 628.404,306.373 628.5,300.5C 632.568,269.167 647.235,244.334 672.5,226C 695.986,213.987 717.653,216.653 737.5,234C 755.675,253.19 766.175,276.023 769,302.5C 772.318,334.606 765.985,364.606 750,392.5C 738.725,410.723 722.559,421.89 701.5,426C 686.929,427.031 673.929,423.031 662.5,414C 645.803,398.613 634.969,379.78 630,357.5C 627.053,344.329 625.886,330.996 626.5,317.5 Z"/>
    </g>
    <g>
        <path style="opacity:1" fill="#020202"
              d="M 497.5,289.5 C 511.142,287.904 521.642,292.904 529,304.5C 537.899,322.636 537.566,340.636 528,358.5C 515.831,373.453 501.998,375.286 486.5,364C 472.94,347.192 470.107,328.692 478,308.5C 482.41,299.922 488.91,293.589 497.5,289.5 Z"/>
    </g>
    <g>
        <path style="opacity:1" fill="#040404"
              d="M 686.5,304.5 C 701.559,303.39 716.225,305.223 730.5,310C 744.143,315.428 746.143,323.761 736.5,335C 734.361,336.404 732.028,337.237 729.5,337.5C 701.604,321.05 676.604,324.55 654.5,348C 645.112,347.786 641.612,342.953 644,333.5C 654.537,318.484 668.703,308.817 686.5,304.5 Z"/>
    </g>
    <g>
        <path style="opacity:1" fill="#a9a9a9"
              d="M 628.5,300.5 C 628.404,306.373 627.737,312.04 626.5,317.5C 626.321,311.596 626.988,305.929 628.5,300.5 Z"/>
    </g>
    <g>
        <path style="opacity:1" fill="#f8ad07"
              d="M 465.5,465.5 C 470.731,465.556 475.731,464.889 480.5,463.5C 515.695,458.793 551.195,456.793 587,457.5C 653.024,456.519 718.191,463.352 782.5,478C 800.578,482.433 817.578,489.433 833.5,499C 836.04,501.205 838.207,503.705 840,506.5C 840.755,509.303 840.422,511.97 839,514.5C 834.622,518.935 829.788,522.768 824.5,526C 743.787,572.515 656.787,594.182 563.5,591C 487.215,584.015 416.215,561.015 350.5,522C 347.37,519.872 344.537,517.372 342,514.5C 339.817,510.075 340.484,506.075 344,502.5C 356.021,492.906 369.521,486.073 384.5,482C 411.03,474.134 438.03,468.634 465.5,465.5 Z"/>
    </g>
    <g>
        <path style="opacity:1" fill="#b47e06"
              d="M 480.5,463.5 C 475.731,464.889 470.731,465.556 465.5,465.5C 470.269,464.111 475.269,463.444 480.5,463.5 Z"/>
    </g>
    <g>
        <path style="opacity:0.999" fill="#e91c26"
              d="M 181.5,603.5 C 378.813,658.604 579.146,673.27 782.5,647.5C 787.759,646.998 792.926,646.998 798,647.5C 806.11,645.27 814.277,643.27 822.5,641.5C 882.294,632.408 941.294,619.742 999.5,603.5C 1019.17,652.167 1038.83,700.833 1058.5,749.5C 1006.6,765.6 953.928,778.934 900.5,789.5C 856.664,797.48 812.664,804.48 768.5,810.5C 763.269,810.444 758.269,811.111 753.5,812.5C 680.378,820.428 607.045,823.261 533.5,821C 526.823,820.547 520.156,820.047 513.5,819.5C 513.5,878.167 513.5,936.833 513.5,995.5C 453.32,1002.29 393.486,1000.29 334,989.5C 333.5,925.834 333.333,862.168 333.5,798.5C 315.745,795.964 298.078,792.964 280.5,789.5C 227.288,779.03 174.621,766.03 122.5,750.5C 142.362,701.58 162.029,652.58 181.5,603.5 Z"/>
    </g>
    <g>
        <path style="opacity:1" fill="#ae151d"
              d="M 822.5,641.5 C 814.277,643.27 806.11,645.27 798,647.5C 792.926,646.998 787.759,646.998 782.5,647.5C 795.66,645.238 808.994,643.238 822.5,641.5 Z"/>
    </g>
    <g>
        <path style="opacity:0.994" fill="#000000"
              d="M 1058.5,749.5 C 1081.96,809.395 1102.13,870.395 1119,932.5C 1128.8,970.287 1135.46,1008.62 1139,1047.5C 1140.13,1067.58 1139.46,1087.58 1137,1107.5C 1135.64,1113.92 1133.31,1119.92 1130,1125.5C 1127.68,1128.1 1124.85,1128.93 1121.5,1128C 1117.46,1127.1 1113.8,1125.43 1110.5,1123C 1105,1118.17 1099.5,1113.33 1094,1108.5C 1063.18,1073.35 1035.85,1035.69 1012,995.5C 1007.34,1070.51 982.004,1137.51 936,1196.5C 927.667,1206.17 919.333,1215.83 911,1225.5C 901.302,1234.37 891.802,1243.37 882.5,1252.5C 815.345,1306.22 738.678,1337.72 652.5,1347C 632.054,1349.15 611.721,1350.65 591.5,1351.5C 590.833,1351.5 590.167,1351.5 589.5,1351.5C 532.411,1350.74 476.744,1341.24 422.5,1323C 377.426,1306.14 336.426,1282.64 299.5,1252.5C 221.324,1185.15 177.824,1099.82 169,996.5C 148.891,1028.61 127.224,1059.61 104,1089.5C 93.4615,1103.04 81.2949,1114.87 67.5,1125C 61.0509,1130.12 55.2176,1129.62 50,1123.5C 45.1764,1113.06 42.5098,1102.06 42,1090.5C 40.6831,1059.95 42.6831,1029.62 48,999.5C 57.0412,950.335 69.3745,902.002 85,854.5C 97.0081,819.641 109.508,784.975 122.5,750.5C 174.621,766.03 227.288,779.03 280.5,789.5C 270.251,862.975 268.751,936.641 276,1010.5C 282.39,1065.07 299.39,1116.07 327,1163.5C 380.232,1246.59 456.399,1292.76 555.5,1302C 623.887,1308.52 688.554,1296.19 749.5,1265C 806.84,1231.66 848.673,1184.49 875,1123.5C 892.139,1082.15 902.806,1039.15 907,994.5C 910.293,943.182 910.293,891.848 907,840.5C 905.356,823.382 903.19,806.382 900.5,789.5C 953.928,778.934 1006.6,765.6 1058.5,749.5 Z"/>
    </g>
    <g>
        <path style="opacity:1" fill="#fefefe"
              d="M 280.5,789.5 C 298.078,792.964 315.745,795.964 333.5,798.5C 333.333,862.168 333.5,925.834 334,989.5C 393.486,1000.29 453.32,1002.29 513.5,995.5C 513.5,936.833 513.5,878.167 513.5,819.5C 520.156,820.047 526.823,820.547 533.5,821C 607.045,823.261 680.378,820.428 753.5,812.5C 758.731,812.556 763.731,811.889 768.5,810.5C 812.664,804.48 856.664,797.48 900.5,789.5C 903.19,806.382 905.356,823.382 907,840.5C 910.293,891.848 910.293,943.182 907,994.5C 902.806,1039.15 892.139,1082.15 875,1123.5C 848.673,1184.49 806.84,1231.66 749.5,1265C 688.554,1296.19 623.887,1308.52 555.5,1302C 456.399,1292.76 380.232,1246.59 327,1163.5C 299.39,1116.07 282.39,1065.07 276,1010.5C 268.751,936.641 270.251,862.975 280.5,789.5 Z"/>
    </g>
    <g>
        <path style="opacity:1" fill="#fcc7c8"
              d="M 768.5,810.5 C 763.731,811.889 758.731,812.556 753.5,812.5C 758.269,811.111 763.269,810.444 768.5,810.5 Z"/>
    </g>
    <g>
        <path style="opacity:0.983" fill="#f8ad07"
              d="M 299.5,1252.5 C 336.426,1282.64 377.426,1306.14 422.5,1323C 476.744,1341.24 532.411,1350.74 589.5,1351.5C 486.497,1360.35 383.33,1363.35 280,1360.5C 263.874,1359.17 247.707,1357.67 231.5,1356C 216.197,1354.74 201.53,1351.07 187.5,1345C 182.234,1340.8 179.901,1335.3 180.5,1328.5C 180.444,1322.73 181.944,1317.39 185,1312.5C 193.515,1302 203.682,1293.5 215.5,1287C 242.172,1272.28 270.172,1260.78 299.5,1252.5 Z"/>
    </g>
    <g>
        <path style="opacity:0.982" fill="#f8ad07"
              d="M 882.5,1252.5 C 910.136,1260.81 936.803,1271.65 962.5,1285C 971.353,1289.92 979.686,1295.59 987.5,1302C 995.201,1309.24 999.867,1318.07 1001.5,1328.5C 1001.35,1338.31 996.686,1344.81 987.5,1348C 977.721,1351.28 967.721,1353.61 957.5,1355C 912.254,1359.99 866.588,1362.16 820.5,1361.5C 744.228,1361.53 667.895,1358.2 591.5,1351.5C 611.721,1350.65 632.054,1349.15 652.5,1347C 738.678,1337.72 815.345,1306.22 882.5,1252.5 Z"/>
    </g>
</svg>
